HIERARCHY
ROOT pelvis
{
  OFFSET 0 100 0
  CHANNELS 6 Xposition Yposition Zposition Zrotation Xrotation Yrotation
  JOINT pelvis_right_femur
  {
    OFFSET -10.78128 -3.44521 -0.5502486
    CHANNELS 3 Zrotation Xrotation Yrotation
    JOINT right_femur_tibia
    {
      OFFSET -0.8047443 -44.0398 -0.1307829
      CHANNELS 3 Zrotation Xrotation Yrotation
      JOINT right_tibia_foot
      {
        OFFSET 3.006224 -47.83518 -5
        CHANNELS 3 Zrotation Xrotation Yrotation
        End Site
        {
          OFFSET 0 -5 15
        }
      }
    }
  }
  JOINT pelvis_left_femur
  {
    OFFSET 10.78128 -3.44521 -0.5502486
    CHANNELS 3 Zrotation Xrotation Yrotation
    JOINT left_femur_tibia
    {
      OFFSET 0.8047443 -44.0398 -0.1307829
      CHANNELS 3 Zrotation Xrotation Yrotation
      JOINT left_tibia_foot
      {
        OFFSET -4.370144 -48.10324 -4.275266
        CHANNELS 3 Zrotation Xrotation Yrotation
        End Site
        {
          OFFSET 0 -5 15
        }
      }
    }
  }
  JOINT pelvis_spine1
  {
    OFFSET 0 6.468898 -3.129235
    CHANNELS 3 Zrotation Xrotation Yrotation
    JOINT spine1
    {
      OFFSET 0 23.15396 4.99043
      CHANNELS 3 Zrotation Xrotation Yrotation
      JOINT spine2
      {
        OFFSET 0 20.79997 -5.064912
        CHANNELS 3 Zrotation Xrotation Yrotation
        JOINT neck
        {
          OFFSET 0 14.38658 9.616178
          CHANNELS 3 Zrotation Xrotation Yrotation
          End Site
          {
            OFFSET 0 20 0
          }
        }
      }
      JOINT right_manubrium
      {
        OFFSET -5.722621 16.35077 3.967754
        CHANNELS 3 Zrotation Xrotation Yrotation
        JOINT right_clavicle
        {
          OFFSET -13.16364 1.694482 -4.693211
          CHANNELS 3 Zrotation Xrotation Yrotation
          JOINT right_humerus
          {
            OFFSET -28.5034 -0.3100689 -2.792744
            CHANNELS 3 Zrotation Xrotation Yrotation
            JOINT right_radius
            {
              OFFSET -25.15693 0.02248979 -1.271978
              CHANNELS 3 Zrotation Xrotation Yrotation
              End Site
              {
                OFFSET -15 0 0
              }
            }
          }
        }
      }
      JOINT left_manubrium
      {
        OFFSET 5.722621 16.35077 3.967754
        CHANNELS 3 Zrotation Xrotation Yrotation
        JOINT left_clavicle
        {
          OFFSET 13.16364 1.694482 -4.693211
          CHANNELS 3 Zrotation Xrotation Yrotation
          JOINT left_humerus
          {
            OFFSET 29.39168 -1.063119 -2.237045
            CHANNELS 3 Zrotation Xrotation Yrotation
            JOINT left_radius
            {
              OFFSET 24.59957 -0.9528479 0.9047498
              CHANNELS 3 Zrotation Xrotation Yrotation
              End Site
              {
                OFFSET 15 -0 -0
              }
            }
          }
        }
      }
    }
  }
}
MOTION
Frames: 21
Frame Time: 0.0416666666667
185.6465 101.8583 3085.97 -0.3645872 -4.694104 -3.52529 3.827234 16.63733 2.139511 -0 11.62462 -0 -2.751994 -17.52485 -0.9844553 2.355339 -27.28676 -3.430484 -0 18.76244 -0 -6.017642 -6.955845 20.25837 2.757325 -4.233729 8.33944 0.9330076 19.00079 -7.523756 1.040446 17.98753 0.8748055 -0.9025998 -19.54802 3.473135 -2.447051 -31.44766 14.34633 91.55486 13.9621 -13.95089 -0 0 27.7972 -23.91663 17.95708 15.06351 1.314128 -25.06514 -8.839351 -92.29752 7.675071 36.34827 0 0 -13.05995 6.868695 14.5094 4.858529
186.1194 100.7419 3092.463 -0.2126815 -4.233998 -4.087255 2.831165 18.2835 2.217932 -0 14.84298 -0 -2.201041 -16.24106 -0.6206199 1.58464 -27.35382 -3.918643 -0 15.77007 -0 -5.029976 -6.62832 20.41129 2.709619 -4.215395 8.28437 0.8714497 18.91688 -7.387276 1.121687 18.03786 0.8247945 -0.9931723 -19.57638 3.593619 -2.44518 -31.5076 14.27595 91.38177 14.10158 -13.52487 -0 0 28.01815 -24.03764 18.10089 15.28392 1.342623 -24.7546 -8.662317 -92.40308 7.832569 36.49432 0 0 -12.56738 6.888172 14.66071 4.883211
186.7276 99.98582 3099.4 0.3796355 -4.298453 -4.539416 1.341518 19.54972 2.547613 -0 20.00648 -0 -1.842723 -12.66582 -0.7024514 -0.1317147 -26.12771 -5.14086 -0 16.12241 -0 -4.137913 -6.84409 20.56846 2.672229 -4.2029 8.24166 0.8246394 18.85501 -7.288438 1.175227 18.0808 0.8004454 -1.034653 -19.57739 3.670366 -2.425026 -31.53065 14.23019 91.24107 14.1981 -13.23046 -0 0 28.16531 -24.13024 18.19273 15.42366 1.376802 -24.54931 -8.545912 -92.48734 7.936718 36.57592 0 0 -12.18925 6.924239 14.7813 4.860299
187.4061 99.74514 3106.628 1.148934 -4.873605 -4.708587 -0.180339 19.87451 2.872387 -0 27.21234 -0 -1.714519 -7.322267 -1.059098 -2.194316 -23.69599 -6.695615 -0 18.11249 -0 -3.523533 -7.628564 20.62547 2.650669 -4.197363 8.21422 0.7994925 18.82446 -7.240068 1.197427 18.11135 0.8017136 -1.029993 -19.55867 3.69977 -2.394421 -31.51738 14.2141 91.15829 14.2387 -13.10391 -0 0 28.21468 -24.1832 18.22596 15.47142 1.408911 -24.46942 -8.500409 -92.53609 7.981673 36.58257 0 0 -11.97983 6.969008 14.85861 4.801769
188.0886 100.102 3113.891 1.759629 -5.751614 -4.45576 -1.201781 18.48002 2.907972 -0 35.95503 -0 -1.884529 -1.372752 -1.503509 -3.97098 -20.12305 -8.021131 -0 20.12039 -0 -3.087422 -8.742737 20.4158 2.64976 -4.199398 8.20745 0.8017404 18.83152 -7.251661 1.185618 18.12227 0.8252353 -0.9868095 -19.52952 3.679425 -2.364243 -31.4754 14.22947 91.15404 14.21674 -13.16655 -0 0 28.15851 -24.18488 18.19767 15.42322 1.429113 -24.52491 -8.531192 -92.5377 7.962341 36.51832 0 0 -11.98516 7.008149 14.87529 4.729968
188.7354 101.0198 3120.909 1.987584 -6.671856 -3.772607 -1.453755 14.91009 2.579513 -0 44.83234 -0 -2.384354 3.800997 -1.96494 -5.099374 -15.59997 -8.774406 -0 21.1442 -0 -2.612803 -9.90766 19.92649 2.672556 -4.209278 8.228026 0.8343092 18.87818 -7.327156 1.138596 18.10588 0.8655051 -0.9147542 -19.49804 3.608377 -2.345417 -31.41688 14.27466 91.23893 14.13276 -13.42037 -0 0 28.00666 -24.12648 18.1089 15.2828 1.428333 -24.71434 -8.638063 -92.48577 7.874904 36.39977 0 0 -12.23247 7.025323 14.81412 4.670307
189.3384 102.3079 3127.461 1.806148 -7.434934 -2.789376 -1.057556 9.326461 2.062653 -0 51.79605 -0 -3.108388 7.078152 -2.502112 -5.558343 -10.48737 -8.97179 -0 20.85289 -0 -1.973626 -10.99772 19.29639 2.719191 -4.226628 8.281473 0.8959059 18.96083 -7.462953 1.057459 18.05715 0.9166338 -0.8229165 -19.46931 3.48837 -2.34625 -31.35463 14.34455 91.41069 13.99534 -13.846 -0 0 27.7827 -24.00541 17.964 15.06121 1.401172 -25.02393 -8.814516 -92.38108 7.719196 36.25045 0 0 -12.72112 7.007573 14.66415 4.643313
189.9037 103.6519 3133.463 1.370814 -7.913528 -1.702369 -0.3673871 2.437985 1.575384 -0 54.91275 -0 -3.819358 8.005854 -3.211091 -5.549649 -5.250114 -8.838458 -0 19.42307 -0 -1.224203 -12.08724 18.6453 2.786248 -4.250052 8.369602 0.980652 19.07036 -7.647429 0.9462314 17.97625 0.9739152 -0.717956 -19.44455 3.32499 -2.37029 -31.2982 14.43115 91.65402 13.82034 -14.40464 -0 0 27.51709 -23.82728 17.76998 14.77552 1.347815 -25.42846 -9.047781 -92.23217 7.501117 36.09425 0 0 -13.41813 6.949707 14.42578 4.658612
190.432 104.7041 3138.988 0.9238346 -8.035408 -0.6829655 0.257029 -4.802643 1.169997 -0 53.18728 -0 -4.277747 6.91882 -4.092085 -5.337539 -0.3281206 -8.600265 -0 17.30725 -0 -0.5623957 -13.36075 17.96716 2.867027 -4.277073 8.488801 1.079125 19.19376 -7.862574 0.8118611 17.8695 1.034639 -0.6034027 -19.42141 3.12787 -2.415126 -31.25156 14.52507 91.94319 13.62833 -15.04424 -0 0 27.23996 -23.60582 17.53635 14.44669 1.274347 -25.89437 -9.320113 -92.0542 7.233623 35.94966 0 0 -14.26083 6.856219 14.11293 4.712509
190.911 105.1875 3144.225 0.6726857 -7.793013 0.1764128 0.5739447 -11.52837 0.7181222 -0 46.95507 -0 -4.373128 4.686257 -4.99875 -5.137944 4.000074 -8.387687 -0 15.03083 -0 -0.2210488 -14.95837 17.17077 2.952633 -4.304444 8.629808 1.180371 19.31667 -8.087139 0.6636143 17.74837 1.097935 -0.480299 -19.39505 2.90995 -2.472679 -31.21287 14.61728 92.24643 13.44065 -15.70782 -0 0 26.97587 -23.36088 17.27528 14.09726 1.191441 -26.38425 -9.610915 -91.86648 6.935909 35.82656 0 0 -15.16614 6.740203 13.75172 4.789715
191.3226 104.9715 3149.41 0.7062928 -7.253511 0.8654487 0.5032806 -17.15267 0.05044734 -0 37.68242 -0 -4.158727 2.284772 -5.724524 -5.067454 7.678074 -8.239903 -0 13.09628 -0 -0.3576087 -16.83975 16.18174 3.033539 -4.328774 8.779048 1.274092 19.42609 -8.30018 0.5121091 17.62711 1.163819 -0.3489198 -19.36007 2.686161 -2.531089 -31.17645 14.70051 92.53107 13.27573 -16.3412 -0 0 26.74169 -23.11508 17.00179 13.74936 1.111892 -26.86122 -9.899001 -91.68923 6.631176 35.7265 0 0 -16.04366 6.61987 13.37638 4.868419
191.6501 104.0986 3154.766 0.9758909 -6.539709 1.427596 0.1500227 -21.39488 -0.8752766 -0 27.40284 -0 -3.809161 0.4599763 -6.13741 -5.136325 10.81668 -8.131892 -0 11.99415 -0 -0.9895585 -18.73408 15.01421 3.101281 -4.347271 8.921122 1.352334 19.51242 -8.48411 0.3682215 17.51973 1.231919 -0.2108622 -19.31253 2.471935 -2.577658 -31.13584 14.76998 92.76855 13.14637 -16.89885 -0 0 26.54711 -22.89026 16.73342 13.42352 1.047708 -27.29252 -10.16459 -91.54038 6.343614 35.64543 0 0 -16.80991 6.513998 13.02341 4.926771
191.8792 102.7666 3160.466 1.329084 -5.796103 1.920394 -0.2050073 -24.19978 -1.883878 -0 18.12463 -0 -3.546889 -0.4220375 -6.25329 -5.272281 13.55939 -7.994881 -0 12.24157 -0 -1.986318 -20.19794 13.79359 3.149896 -4.358393 9.041652 1.410371 19.57068 -8.626761 0.2420328 17.43728 1.300452 -0.07065864 -19.25164 2.281787 -2.602002 -31.08676 14.82353 92.93854 13.05836 -17.34761 -0 0 26.39628 -22.70451 16.48916 13.13783 1.007546 -27.65227 -10.3909 -91.43283 6.095277 35.5773 0 0 -17.40067 6.437853 12.72589 4.948603
191.9932 101.2821 3166.615 1.573509 -5.167818 2.375083 -0.1896242 -25.62563 -2.624714 -0 11.39435 -0 -3.555781 -0.3771699 -6.21361 -5.361092 15.93819 -7.746912 -0 14.36283 -0 -3.114021 -20.7513 12.738 3.176794 -4.362174 9.129631 1.446725 19.60075 -8.722197 0.141959 17.3862 1.365845 0.06368578 -19.18059 2.128173 -2.598527 -31.02887 14.86118 93.03154 13.01059 -17.66825 -0 0 26.28942 -22.57032 16.28752 12.9074 0.9951726 -27.92294 -10.56531 -91.37271 5.903536 35.51693 0 0 -17.77923 6.400604 12.50893 4.926787
191.9766 99.99377 3173.237 1.550551 -4.795021 2.765608 0.4978295 -25.73972 -2.732014 -0 8.02839 -0 -3.903642 0.266058 -6.200359 -5.289419 17.7755 -7.344501 -0 18.77335 -0 -4.131082 -20.04191 12.09206 3.1828 -4.3601 9.178704 1.462503 19.60646 -8.770229 0.07417613 17.36786 1.423046 0.1813656 -19.1064 2.020713 -2.567594 -30.96604 14.88437 93.04937 12.99653 -17.85485 -0 0 26.22413 -22.4942 16.14445 12.74395 1.009255 -28.09559 -10.67981 -91.35908 5.779615 35.46162 0 0 -17.93848 6.404528 12.38732 4.863755
191.8262 99.21586 3180.259 1.203257 -4.799309 3.000587 1.905894 -24.55134 -2.031164 -0 7.969153 -0 -4.508802 0.9697441 -6.339422 -4.98275 18.66559 -6.834018 -0 25.57685 -0 -4.905342 -17.99759 12.02303 3.171425 -4.354548 9.187306 1.460388 19.59401 -8.774898 0.04235941 17.37941 1.466321 0.2703666 -19.03868 1.965773 -2.515176 -30.90535 14.89501 93.0032 13.00674 -17.91209 -0 0 26.19662 -22.47721 16.07137 12.65567 1.044321 -28.16862 -10.73091 -91.38511 5.728374 35.41165 0 0 -17.89671 6.445633 12.36535 4.769879
191.5645 99.14809 3187.507 0.6175985 -5.239876 2.952674 3.726092 -22.02872 -0.6821925 -0 10.28383 -0 -5.175364 1.132685 -6.627772 -4.441838 18.06192 -6.356692 -0 34.332 -0 -5.470839 -14.92898 12.53869 3.147593 -4.347976 9.158009 1.443622 19.56999 -8.742486 0.04765005 17.41518 1.490249 0.3194835 -18.98776 1.966243 -2.451275 -30.85553 14.8947 92.90992 13.03192 -17.85119 -0 0 26.20314 -22.51607 16.07387 12.64716 1.092377 -28.14558 -10.71897 -91.44047 5.749038 35.3704 0 0 -17.68888 6.515054 12.43777 4.660866
191.2393 99.81139 3194.726 0.008874505 -6.050634 2.529374 5.380711 -18.21549 0.8612842 -0 13.4132 -0 -5.687449 0.3013769 -6.913975 -3.772694 15.48518 -6.071053 -0 43.90882 -0 -5.953837 -11.51771 13.48735 3.116266 -4.342112 9.096576 1.415245 19.53958 -8.679635 0.08872801 17.46826 1.490682 0.3203078 -18.96267 2.021415 -2.387675 -30.82532 14.88408 92.78784 13.06564 -17.68586 -0 0 26.24141 -22.60404 16.15101 12.71925 1.144651 -28.03293 -10.64738 -91.51412 5.836358 35.34421 0 0 -17.35654 6.600699 12.59139 4.55509
190.9058 101.0295 3201.66 -0.365327 -7.011865 1.7525 6.323452 -13.35582 2.109696 -0 15.74576 -0 -5.911557 -1.603127 -6.96952 -3.160569 10.80228 -6.027645 -0 52.59158 -0 -6.418791 -8.610504 14.63469 3.0813 -4.337423 9.010952 1.377671 19.50535 -8.59205 0.1619683 17.53173 1.46553 0.2688458 -18.96931 2.126975 -2.335569 -30.82191 14.86257 92.65273 13.10631 -17.42922 -0 0 26.31148 -22.73163 16.29533 12.86859 1.19315 -27.83846 -10.5218 -91.59673 5.981781 35.34184 0 0 -16.93913 6.689071 12.80695 4.47097
190.6056 102.48 3208.146 -0.3451043 -7.812135 0.772521 6.364366 -7.89117 2.829117 -0 16.32693 -0 -5.845238 -4.219244 -6.640949 -2.734322 4.411489 -6.109016 -0 58.48984 -0 -6.798571 -6.848455 15.77214 3.044791 -4.333028 8.910134 1.332551 19.46694 -8.483903 0.2617937 17.59974 1.415277 0.1664892 -19.00927 2.275341 -2.303447 -30.84969 14.82866 92.51517 13.15737 -17.09253 -0 0 26.41553 -22.88748 16.49381 13.08741 1.231978 -27.57065 -10.34953 -91.68225 6.174562 35.37285 0 0 -16.46803 6.767451 13.06167 4.424051
190.3592 103.795 3214.166 0.01448313 -8.189082 -0.2181007 5.754182 -2.324779 3.102819 -0 15.22457 -0 -5.585738 -6.993402 -5.958375 -2.405852 -2.852171 -6.10213 -0 60.10324 -0 -7.004352 -6.358323 16.80679 3.007006 -4.32709 8.802837 1.280826 19.42161 -8.357882 0.3813152 17.66809 1.34311 0.02012886 -19.07947 2.456491 -2.295519 -30.90913 14.78052 92.37936 13.22577 -16.68532 -0 0 26.55649 -23.05973 16.72983 13.36371 1.258326 -27.23892 -10.13901 -91.76842 6.402827 35.44499 0 0 -15.96385 6.826339 13.33275 4.423777
